<?xml version="1.0" encoding="UTF-8" standalone="no"?>
<!-- Created with Inkscape (http://www.inkscape.org/) -->

<svg
   xmlns:dc="http://purl.org/dc/elements/1.1/"
   xmlns:cc="http://creativecommons.org/ns#"
   xmlns:rdf="http://www.w3.org/1999/02/22-rdf-syntax-ns#"
   xmlns:svg="http://www.w3.org/2000/svg"
   xmlns="http://www.w3.org/2000/svg"
   xmlns:sodipodi="http://sodipodi.sourceforge.net/DTD/sodipodi-0.dtd"
   xmlns:inkscape="http://www.inkscape.org/namespaces/inkscape"
   width="744.09448819"
   height="1052.3622047"
   id="svg2"
   version="1.1"
   inkscape:version="0.48.3.1 r9886"
   sodipodi:docname="HR.png">
  <defs
     id="defs4" />
  <sodipodi:namedview
     id="base"
     pagecolor="#ffffff"
     bordercolor="#666666"
     borderopacity="1.0"
     inkscape:pageopacity="0.0"
     inkscape:pageshadow="2"
     inkscape:zoom="0.35"
     inkscape:cx="263.70259"
     inkscape:cy="632.43069"
     inkscape:document-units="px"
     inkscape:current-layer="layer1"
     showgrid="false"
     inkscape:window-width="1916"
     inkscape:window-height="1057"
     inkscape:window-x="0"
     inkscape:window-y="19"
     inkscape:window-maximized="0" />
  <metadata
     id="metadata7">
    <rdf:RDF>
      <cc:Work
         rdf:about="">
        <dc:format>image/svg+xml</dc:format>
        <dc:type
           rdf:resource="http://purl.org/dc/dcmitype/StillImage" />
        <dc:title></dc:title>
      </cc:Work>
    </rdf:RDF>
  </metadata>
  <g
     inkscape:label="Layer 1"
     inkscape:groupmode="layer"
     id="layer1">
    <path
       sodipodi:type="arc"
       style="fill:#008000;fill-opacity:0.647343;fill-rule:evenodd;stroke:#000000;stroke-width:1.20789754;stroke-linejoin:miter;stroke-miterlimit:4;stroke-opacity:1;stroke-dasharray:none"
       id="path2985"
       sodipodi:cx="-1074.2858"
       sodipodi:cy="175.21933"
       sodipodi:rx="508.57144"
       sodipodi:ry="331.42856"
       d="m -565.71432,175.21933 a 508.57144,331.42856 0 1 1 -1017.14288,0 508.57144,331.42856 0 1 1 1017.14288,0 z"
       transform="matrix(0.68539327,0,0,1,-366.54897,691.42857)" />
    <rect
       style="fill:#aa0000;fill-opacity:0.647343;fill-rule:evenodd;stroke:#000000;stroke-width:1;stroke-linejoin:miter;stroke-miterlimit:4;stroke-opacity:1;stroke-dasharray:none"
       id="rect2989"
       width="557.14288"
       height="1117.1428"
       x="-1091.4622"
       y="775.81982"
       transform="matrix(0.84426615,0.53592413,-0.53592413,0.84426615,0,0)" />
    <path
       style="fill:#000080;fill-opacity:0.647343;fill-rule:evenodd;stroke:#000000;stroke-width:1;stroke-linejoin:miter;stroke-miterlimit:4;stroke-opacity:1;stroke-dasharray:none"
       d="M 469.61976,542.23384 C 443.66764,679.19748 405.37455,809.17324 371.18495,876.34457 310.2472,996.06717 243.36662,1013.7608 181.71699,926.46878 131.95021,856.00198 85.619732,711.20656 52.531922,522.7296 c -5.61515,-31.98529 -10.21433,-60.44564 -10.2204,-63.24483 -0.006,-2.79943 2.07814,-4.99215 4.63157,-4.87275 3.43066,0.16052 6.10994,10.40974 10.26343,39.26156 14.83523,103.05118 58.144908,264.52417 86.561958,322.73214 7.12305,14.59028 13.46107,28.19957 14.08453,30.24295 0.62347,2.04335 9.88878,16.73952 20.58953,32.65846 52.56589,78.19951 108.08842,80.79591 161.47316,7.55095 10.86746,-14.91036 20.28693,-28.73275 20.9322,-30.71679 0.64524,-1.98403 7.12718,-14.99383 14.40434,-28.91071 29.03199,-55.5215 74.06543,-212.8633 90.00727,-314.47526 4.46331,-28.44886 7.25203,-38.44247 10.6827,-38.28206 2.55345,0.11944 4.61287,2.50591 4.57653,5.30335 -0.0359,2.79722 -4.94083,30.81313 -10.89898,62.25723 z"
       id="path2993"
       inkscape:connector-curvature="0" />
    <path
       style="fill:#000080;fill-opacity:0.647343;fill-rule:evenodd;stroke:#000000;stroke-width:0.99999994;stroke-linejoin:miter;stroke-miterlimit:4;stroke-opacity:1;stroke-dasharray:none"
       d="M 690.33952,-26.953254 C 660.72924,120.60011 617.03839,260.62528 578.02948,332.99016 508.50202,461.96942 432.19407,481.03106 361.85436,386.98986 305.07251,311.0747 252.21135,155.08405 214.45953,-47.965504 c -6.40664,-34.45832 -11.65412,-65.119156 -11.66106,-68.134776 -0.006,-3.01588 2.37109,-5.37813 5.28443,-5.24952 3.91424,0.17288 6.97118,11.21462 11.71013,42.297176 16.92642,111.01886 66.34098,284.976584 98.76366,347.685054 8.1271,15.71837 15.35853,30.3799 16.06987,32.58126 0.71136,2.20135 11.28268,18.0338 23.4918,35.18355 59.9755,84.24572 123.32443,87.04286 184.23421,8.13477 12.39931,-16.0632 23.14652,-30.95431 23.88274,-33.09175 0.73618,-2.13744 8.13185,-16.15313 16.43478,-31.14601 33.12429,-59.81429 84.50559,-229.321404 102.69455,-338.789774 5.09249,-30.64845 8.27428,-41.41475 12.18852,-41.24195 2.91341,0.12871 5.26311,2.69967 5.22167,5.71341 -0.0411,3.01348 -5.6373,33.19552 -12.43531,67.07081 z"
       id="path2993-7"
       inkscape:connector-curvature="0" />
    <rect
       style="fill:#fb1818;fill-opacity:1;fill-rule:evenodd;stroke:#000000;stroke-width:1;stroke-linejoin:miter;stroke-miterlimit:4;stroke-opacity:1;stroke-dasharray:none"
       id="rect3013"
       width="385.71426"
       height="14.285714"
       x="40.809765"
       y="-220.89328"
       transform="matrix(0.28409712,0.95879551,-0.95879551,0.28409712,0,0)" />
    <rect
       style="fill:#ffb33b;fill-opacity:1;fill-rule:evenodd;stroke:#000000;stroke-width:1;stroke-linejoin:miter;stroke-miterlimit:4;stroke-opacity:1;stroke-dasharray:none"
       id="rect3788"
       width="203.23351"
       height="17.142859"
       x="253.90936"
       y="446.64789" />
    <rect
       style="fill:#000000;fill-opacity:1;fill-rule:evenodd;stroke:#000000;stroke-width:0.99999988;stroke-linejoin:miter;stroke-miterlimit:4;stroke-opacity:1;stroke-dasharray:none"
       id="rect3790"
       width="11.428572"
       height="752.07965"
       x="254.28572"
       y="185.9968" />
    <rect
       style="fill:#aa0000;fill-opacity:0.647343;fill-rule:evenodd;stroke:#000000;stroke-width:1;stroke-linejoin:miter;stroke-miterlimit:4;stroke-opacity:1;stroke-dasharray:none"
       id="rect2989-2"
       width="557.14288"
       height="1117.1428"
       x="779.95599"
       y="-410.42886"
       transform="matrix(-0.84426615,0.53592413,0.53592413,0.84426615,0,0)" />
    <path
       style="fill:#000000;fill-opacity:1;fill-rule:evenodd;stroke:#000000;stroke-width:1;stroke-linejoin:miter;stroke-miterlimit:4;stroke-opacity:1;stroke-dasharray:none"
       d="m 259.3156,220.67789 c -4.06665,-2.32612 -7.02966,-6.30514 -10.2062,-13.70597 -0.7152,-1.66627 -1.10696,-2.96387 -1.04855,-3.47302 0.14372,-1.25275 14.44698,-72.92083 14.55089,-72.9089 0.12066,0.0139 14.72458,73.37161 14.79681,74.32667 0.0645,0.85287 -2.43709,6.26396 -4.17588,9.03267 -1.49225,2.37611 -3.70814,4.83327 -5.49359,6.09174 -1.86447,1.31415 -6.61187,1.67306 -8.42348,0.63681 l 0,0 z"
       id="path3828"
       inkscape:connector-curvature="0" />
    <text
       xml:space="preserve"
       style="font-size:136.24827576000001272px;font-style:normal;font-variant:normal;font-weight:600;font-stretch:normal;line-height:125%;letter-spacing:0px;word-spacing:0px;fill:#ff9046;fill-opacity:1;stroke:none;font-family:LMRomanDemi10;-inkscape-font-specification:LMRomanDemi10 Semi-Bold"
       x="334.96814"
       y="625.9129"
       id="text3830"
       sodipodi:linespacing="125%"
       transform="scale(1.0528554,0.94979802)"><tspan
         sodipodi:role="line"
         id="tspan3832"
         x="334.96814"
         y="625.9129">shift</tspan></text>
    <text
       xml:space="preserve"
       style="font-size:104.98100281px;font-style:normal;font-variant:normal;font-weight:600;font-stretch:normal;line-height:125%;letter-spacing:0px;word-spacing:0px;fill:#cb1600;fill-opacity:1;stroke:none;font-family:LMRomanDemi10;-inkscape-font-specification:LMRomanDemi10 Semi-Bold"
       x="260.12567"
       y="99.979843"
       id="text3834"
       sodipodi:linespacing="125%"
       transform="scale(1.0116686,0.988466)"><tspan
         sodipodi:role="line"
         id="tspan3836"
         x="260.12567"
         y="99.979843">gradient</tspan><tspan
         sodipodi:role="line"
         x="260.12567"
         y="231.2061"
         id="tspan3838" /></text>
  </g>
</svg>
